<?xml version="1.0" encoding="utf-8"?>
<!-- Generator: Adobe Illustrator 17.0.0, SVG Export Plug-In . SVG Version: 6.00 Build 0)  -->
<!DOCTYPE svg PUBLIC "-//W3C//DTD SVG 1.1//EN" "http://www.w3.org/Graphics/SVG/1.1/DTD/svg11.dtd">
<svg version="1.1" id="Ebene_1" xmlns="http://www.w3.org/2000/svg" xmlns:xlink="http://www.w3.org/1999/xlink" x="0px" y="0px"
	 width="42.956px" height="19.031px" viewBox="0 0 42.956 19.031" enable-background="new 0 0 42.956 19.031" xml:space="preserve">
<path fill="#FFFFFF" d="M0,14.844c0-0.192,0-0.385,0-0.577c0.106-0.28,0.329-0.451,0.569-0.604c0.345-0.22,0.704-0.42,1.04-0.654
	c1.183-0.822,2.356-1.658,3.54-2.479c0.247-0.171,0.432-0.341,0.42-0.678C5.559,9.525,5.602,9.194,5.62,8.873
	c-0.774-0.199-0.81-1.121-0.398-1.518C6.078,6.53,6.899,5.669,7.729,4.819c0.683-0.7,1.363-1.403,2.037-2.111
	c0.546-0.574,1.115-1.131,1.612-1.746c0.495-0.613,1.347-0.585,1.812-0.239c0.319,0.237,0.569,0.566,0.855,0.85
	c0.046,0.045,0.109,0.095,0.169,0.101c0.286,0.029,0.574,0.059,0.861,0.061c1.139,0.007,2.278-0.005,3.416,0.006
	c0.921,0.009,1.842,0.047,2.763,0.06c0.685,0.01,1.371,0.004,2.057-0.003c1.178-0.011,2.357-0.047,3.535-0.033
	c0.697,0.008,1.391,0.094,2.078-0.101c0.145-0.041,0.255-0.084,0.318-0.234c0.057-0.135,0.134-0.263,0.217-0.383
	C29.745,0.625,30.118,0.29,30.535,0c0.205,0,0.41,0,0.615,0c0.228,0.201,0.46,0.396,0.68,0.605c0.097,0.091,0.172,0.206,0.251,0.314
	c0.292,0.404,0.584,0.807,0.871,1.214c0.162,0.229,0.31,0.467,0.473,0.695c0.146,0.203,0.309,0.392,0.455,0.594
	c0.35,0.48,0.674,0.981,1.046,1.443c0.521,0.647,1.08,1.263,1.615,1.898c0.148,0.175,0.281,0.366,0.399,0.563
	c0.217,0.361,0.125,0.805-0.198,1.07c-0.045,0.037-0.1,0.095-0.102,0.146c-0.025,0.466-0.039,0.932-0.055,1.399
	c-0.004,0.1,0.04,0.154,0.145,0.157c0.141,0.004,0.282,0.023,0.422,0.018c0.594-0.022,1.187-0.057,1.781-0.073
	c0.349-0.009,0.718,0.245,0.766,0.578c0.035,0.242,0.17,0.384,0.31,0.543c0.076,0.087,0.148,0.177,0.219,0.267
	c0.568,0.728,1.217,1.38,1.881,2.019c0.302,0.291,0.565,0.621,0.846,0.934c0,0.179,0,0.359,0,0.538
	c-0.109,0.139-0.191,0.326-0.333,0.407c-0.191,0.109-0.227,0.242-0.22,0.43c0.02,0.579-0.02,1.153,0.141,1.73
	c0.168,0.602-0.369,1.137-0.868,1.091c-0.343-0.032-0.689-0.048-1.034-0.044c-0.678,0.008-1.357,0.034-2.035,0.053
	c-0.73,0.02-1.46,0.053-2.19,0.057c-1.07,0.006-2.14-0.016-3.209-0.014c-1.966,0.004-3.932,0.019-5.899,0.028
	c-0.506,0.002-1.011,0.01-1.517-0.003c-0.762-0.02-1.523-0.073-2.285-0.082c-1.198-0.014-2.396-0.014-3.595,0.001
	c-1.742,0.021-3.484,0.056-5.225,0.095c-0.524,0.012-1.049,0.049-1.572,0.087c-0.638,0.046-1.273,0.133-1.912,0.154
	c-1.005,0.034-2.011,0.023-3.017,0.039c-1.479,0.024-2.958,0.059-4.437,0.08c-0.512,0.007-1.025-0.026-1.537-0.023
	c-0.372,0.002-0.733-0.023-1.1-0.112c-0.574-0.139-0.869-0.577-0.742-1.202c0.154-0.76,0.164-1.524,0.087-2.292
	c-0.004-0.042-0.02-0.09-0.047-0.12C0.277,15.132,0.137,14.989,0,14.844z M30.801,1.919c-0.034,0.004-0.068,0.007-0.101,0.011
	c-0.148,0.273-0.305,0.543-0.441,0.822c-0.14,0.285-0.294,0.538-0.647,0.591c-0.088,0.013-0.191,0.066-0.246,0.133
	c-0.664,0.821-1.323,1.646-1.977,2.475C26.904,6.564,26.435,7.189,25.95,7.8c-0.226,0.285-0.283,0.601-0.269,0.951
	c0.034,0.857,0.062,1.714,0.082,2.572c0.013,0.544-0.009,1.09,0.01,1.634c0.041,1.132,0.099,2.264,0.149,3.395
	c0.011,0.253,0.02,0.507,0.03,0.763c0.164,0.008,0.298,0.022,0.431,0.021c1.748-0.014,3.497-0.03,5.245-0.047
	c1.076-0.011,2.152-0.028,3.228-0.036c0.132-0.001,0.181-0.042,0.183-0.174c0.008-0.595,0.026-1.191,0.033-1.786
	c0.001-0.062-0.026-0.139-0.067-0.184c-0.293-0.319-0.29-0.64,0.013-0.944c0.041-0.041,0.082-0.103,0.084-0.157
	c0.033-0.736,0.062-1.471,0.086-2.207c0.002-0.071-0.014-0.16-0.056-0.213c-0.193-0.247-0.206-0.525-0.187-0.82
	c0.03-0.466,0.056-0.933,0.058-1.399c0.001-0.57-0.023-1.139-0.042-1.709c-0.002-0.065-0.027-0.14-0.067-0.192
	c-0.186-0.242-0.371-0.487-0.575-0.715c-0.513-0.572-1.002-1.16-1.425-1.805c-0.428-0.652-0.904-1.272-1.367-1.9
	C31.294,2.531,31.043,2.228,30.801,1.919z M7.226,8.842c0,0.342-0.004,0.693,0.001,1.044c0.007,0.46-0.06,0.912-0.104,1.368
	c-0.087,0.89-0.064,1.791-0.089,2.687c-0.003,0.102,0.011,0.175,0.119,0.23c0.324,0.165,0.315,0.786-0.004,0.942
	c-0.098,0.048-0.116,0.114-0.115,0.212c0.006,0.615,0.006,1.23,0.011,1.845c0.001,0.113,0.018,0.225,0.027,0.34
	c0.085,0,0.148,0.001,0.211,0c0.48-0.013,0.962-0.059,1.439-0.033c1.02,0.056,2.034,0.017,3.049-0.079
	c0.528-0.05,1.055-0.128,1.585-0.151c1.075-0.047,2.151-0.063,3.226-0.098c0.342-0.011,0.684-0.042,1.017-0.064
	c0.01-0.04,0.016-0.052,0.016-0.064c-0.016-1.178-0.029-2.356-0.053-3.533c-0.007-0.339-0.051-0.677-0.072-1.015
	c-0.052-0.83-0.11-1.659-0.148-2.49c-0.02-0.439-0.004-0.879-0.004-1.324C13.939,8.72,10.592,8.781,7.226,8.842z M18.398,8.637
	c0,0.704-0.026,1.39,0.006,2.073c0.044,0.914,0.15,1.824,0.198,2.738c0.049,0.94,0.058,1.882,0.087,2.822
	c0.008,0.267,0.023,0.534,0.036,0.819c2.05,0,4.077,0,6.127,0c0-0.091,0.003-0.173,0-0.255c-0.039-0.978-0.093-1.956-0.116-2.935
	c-0.038-1.6-0.058-3.201-0.083-4.801c-0.005-0.311-0.001-0.623-0.001-0.956c-1.913,0-3.775,0-5.638,0
	C18.938,8.494,18.711,8.639,18.398,8.637z M14.863,3.253c0.111,0.103,0.214,0.178,0.292,0.274c0.352,0.431,0.68,0.882,1.049,1.298
	c0.632,0.713,1.287,1.405,1.934,2.103C18.17,6.963,18.22,6.996,18.264,7c0.363,0.029,0.726,0.069,1.09,0.073
	c0.922,0.01,1.845,0.004,2.768,0.005c0.903,0,1.807,0,2.71,0c0.211,0,0.377-0.051,0.515-0.25c0.278-0.398,0.595-0.77,0.899-1.149
	c0.46-0.574,0.925-1.145,1.385-1.719c0.173-0.216,0.338-0.439,0.544-0.706C23.717,3.253,19.31,3.253,14.863,3.253z M7.269,7.694
	c1.104,0,2.147,0.002,3.19-0.001c0.704-0.002,1.409-0.002,2.113-0.018c1.164-0.027,2.328-0.07,3.493-0.1
	c0.38-0.01,0.761-0.002,1.189-0.002c-0.269-0.314-0.492-0.601-0.742-0.862c-0.678-0.706-1.295-1.466-1.939-2.201
	c-0.647-0.739-1.417-1.369-2.164-2.077C10.678,4.159,8.971,5.881,7.269,7.694z M6.018,15.193c-1.34,0-2.676,0-4.065,0
	c0,0.615-0.005,1.215,0.002,1.816c0.006,0.517,0.012,0.52,0.528,0.534c0.768,0.021,1.536,0.041,2.304,0.055
	c0.402,0.007,0.805,0.001,1.231,0.001C6.018,16.774,6.018,15.989,6.018,15.193z M36.085,17.084c1.598-0.057,3.15-0.112,4.737-0.169
	c0.024-0.634,0.046-1.235,0.07-1.863c-0.334,0-0.615,0.005-0.896-0.001c-0.588-0.012-1.176-0.036-1.765-0.044
	C37.579,14.997,36.925,15,36.272,15c-0.118,0-0.184,0.042-0.182,0.183c0.006,0.397-0.003,0.793-0.005,1.19
	C36.084,16.602,36.085,16.83,36.085,17.084z M36.191,11.7c-0.027,0.709-0.054,1.434-0.082,2.166c1.442,0.05,2.858,0.099,4.274,0.147
	c0.012-0.028,0.023-0.057,0.035-0.085c-0.202-0.187-0.425-0.355-0.6-0.563c-0.504-0.601-1.066-1.136-1.704-1.591
	c-0.05-0.036-0.115-0.07-0.173-0.071C37.366,11.698,36.792,11.7,36.191,11.7z M6.033,11.835c-1.111,0.727-2.231,1.39-3.213,2.259
	c1.079,0,2.144,0,3.213,0C6.033,13.337,6.033,12.604,6.033,11.835z"/>
</svg>
